<?xml version="1.0" standalone="no"?>
<!DOCTYPE svg PUBLIC "-//W3C//DTD SVG 20010904//EN"
 "http://www.w3.org/TR/2001/REC-SVG-20010904/DTD/svg10.dtd">
<svg version="1.0" xmlns="http://www.w3.org/2000/svg"
 width="700.000000pt" height="700.000000pt" viewBox="0 0 700.000000 700.000000"
 preserveAspectRatio="xMidYMid meet">
<metadata>
Created by potrace 1.11, written by Peter Selinger 2001-2013
</metadata>
<g transform="translate(0.000000,700.000000) scale(0.100000,-0.100000)"
fill="#000000" stroke="none">
<path d="M3369 6996 c-2 -2 -34 -7 -71 -10 -180 -16 -204 -19 -222 -22 -10 -2
-44 -6 -75 -10 -31 -3 -65 -8 -76 -10 -11 -2 -47 -9 -80 -15 -352 -63 -776
-220 -1094 -406 -179 -105 -409 -266 -515 -362 -120 -108 -157 -142 -216 -201
-86 -86 -213 -229 -275 -310 -27 -36 -52 -67 -55 -70 -7 -7 -33 -45 -107 -155
-205 -307 -358 -643 -462 -1018 -25 -89 -78 -352 -87 -427 -3 -30 -7 -66 -10
-80 -25 -161 -25 -655 1 -812 2 -13 6 -48 10 -78 3 -30 15 -102 26 -160 64
-329 151 -591 294 -886 55 -114 187 -350 204 -364 3 -3 33 -45 66 -95 51 -76
212 -284 251 -322 6 -7 32 -54 57 -106 62 -128 119 -176 237 -201 14 -3 41
-20 60 -39 62 -59 313 -245 401 -296 13 -8 51 -31 84 -51 108 -66 275 -150
414 -209 127 -54 355 -136 404 -145 12 -3 22 -5 22 -6 0 -1 7 -3 15 -5 8 -2
62 -15 120 -29 128 -31 250 -54 333 -62 34 -3 65 -8 68 -9 29 -18 532 -26 709
-12 104 9 111 9 285 37 630 102 1232 390 1735 829 41 36 78 70 81 75 4 5 27 2
52 -7 l45 -15 16 57 c9 32 16 65 16 74 0 9 28 47 61 84 117 128 281 342 354
459 256 413 420 828 496 1254 6 36 12 72 14 80 2 8 6 40 10 70 4 30 9 66 11
80 25 147 24 702 -1 825 -2 11 -7 39 -9 63 -22 176 -75 407 -144 617 -21 65
-97 265 -111 293 -219 446 -321 608 -560 887 -443 515 -1017 883 -1686 1081
-33 9 -64 18 -70 20 -5 1 -50 12 -100 23 -49 12 -97 23 -106 25 -9 3 -40 7
-70 11 -30 4 -57 9 -60 11 -4 2 -33 6 -65 10 -32 3 -60 7 -64 9 -3 2 -50 6
-105 10 -55 4 -118 9 -140 11 -74 6 -312 14 -316 10z"/>
</g>
</svg>
