<svg id="Layer_1" data-name="Layer 1" xmlns="http://www.w3.org/2000/svg" viewBox="0 0 180.92 181.15"><defs><style>.cls-1{fill:#312783;}.cls-2{fill:none;stroke:#fff;stroke-miterlimit:10;stroke-width:3px;}</style></defs><title>LOGOapp</title><circle class="cls-1" cx="90.46" cy="90.69" r="90.46"/><path class="cls-2" d="M83.9,22.2c-18.66-.69-48.29,56.6-28.5,77.5,18.26,19.29,70.71-.72,74,8.15,1.94,5.32-17.34,11.26-87.81,45.55-6.26,3.06-9.51,4.66-12.32,3.4C9.7,148.09,45.45,3.7,89.29,1.79c44.26-1.92,72.44,142.38,64.7,155a1.26,1.26,0,0,1-.77.68c-2.93.66-8.64-16-21.9-49.74,0,0-1-2.59-5.05-12.79C110.17,54.46,97.56,22.7,83.9,22.2Z" transform="translate(-0.5 -0.27)"/></svg>