<svg id="Layer_1" data-name="Layer 1" xmlns="http://www.w3.org/2000/svg" viewBox="0 0 330.59 225.42"><defs><style>.cls-1{fill:none;stroke:#fff;stroke-miterlimit:10;stroke-width:3px;}</style></defs><title>LOGOforApp</title><path class="cls-1" d="M249.53,167.06c-15.74-.66-40.71,54.06-24,74,15.39,18.42,59.61-.69,62.34,7.79,1.64,5.08-14.62,10.75-74,43.51-5.27,2.91-8,4.45-10.39,3.25C187,287.32,217.11,149.4,254.08,147.58c37.31-1.83,61.06,136,54.55,148.05a1.09,1.09,0,0,1-.65.65c-2.47.64-7.29-15.32-18.46-47.51,0,0-.86-2.47-4.28-12.22C271.68,197.87,261.05,167.55,249.53,167.06Z" transform="translate(-197.32 -146.07)"/><path class="cls-1" d="M339.79,230.77c-3.85,5.49-3.61,10.41-5.19,20.78-9.15,59.9-11.44,71-10.35,93.13,0.38,7.72,1,14,1.51,18.07h0c7.53,7.38,11.58,7.76,13.85,6.92,8.2-3,5.22-26.19,11.87-70.73,2.15-14.43,3.19-18.77,7.14-22.08,11.69-9.78,29.78,4.19,45.45-6.49,5.71-3.89,8.26-9.13,13-18.83,5.19-10.66,11.07-22.74,6.49-30.52-5.52-9.37-23.34-7.63-41.56-5.84C365.35,216.81,348.41,218.47,339.79,230.77Z" transform="translate(-197.32 -146.07)"/><path class="cls-1" d="M357.32,257.39c-5.15-4.39-4.67-16.66,1.3-22.73,1.57-1.6,4.34-3.59,24-3.9,15.87-.24,23.84-0.29,26,3.25,3.27,5.43-2.26,16-9.09,21.43-6.29,5-16.1,4.64-35.71,3.9C361.88,259.26,359.37,259.13,357.32,257.39Z" transform="translate(-197.32 -146.07)"/><path class="cls-1" d="M441,230.77c-3.85,5.49-3.61,10.41-5.19,20.78-9.15,59.9-11.44,71-10.35,93.13,0.38,7.72,1,14,1.51,18.07h0c7.53,7.38,11.58,7.76,13.85,6.92,8.2-3,5.22-26.19,11.87-70.73,2.15-14.43,3.19-18.77,7.14-22.08,11.69-9.78,29.78,4.19,45.45-6.49,5.71-3.89,8.26-9.13,13-18.83,5.19-10.66,11.07-22.74,6.49-30.52-5.52-9.37-23.34-7.63-41.56-5.84C466.56,216.81,449.62,218.47,441,230.77Z" transform="translate(-197.32 -146.07)"/><path class="cls-1" d="M458.54,257.39c-5.15-4.39-4.67-16.66,1.3-22.73,1.57-1.6,4.34-3.59,24-3.9,15.87-.24,23.84-0.29,26,3.25,3.27,5.43-2.26,16-9.09,21.43-6.29,5-16.1,4.64-35.71,3.9C463.09,259.26,460.58,259.13,458.54,257.39Z" transform="translate(-197.32 -146.07)"/></svg>